<?xml version="1.0" encoding="UTF-8"?>
<svg xmlns="http://www.w3.org/2000/svg" id="Filled" viewBox="0 0 24 24" width="512" height="512">
    <path fill="#C0C0C6" d="M7,6H23a1,1,0,0,0,0-2H7A1,1,0,0,0,7,6Z"/>
    <path fill="#C0C0C6" d="M23,11H7a1,1,0,0,0,0,2H23a1,1,0,0,0,0-2Z"/>
    <path fill="#C0C0C6" d="M23,18H7a1,1,0,0,0,0,2H23a1,1,0,0,0,0-2Z"/>
    <circle fill="#C0C0C6" cx="2" cy="5" r="2"/>
    <circle fill="#C0C0C6" cx="2" cy="12" r="2"/>
    <circle fill="#C0C0C6" cx="2" cy="19" r="2"/>
</svg>
